<svg xmlns="http://www.w3.org/2000/svg" viewBox="0 0 114.85 102.63"><defs><style>.cls-1{fill:none;stroke:#1d1d1b;stroke-linecap:round;stroke-linejoin:round;stroke-width:5.42px;}.cls-2{fill:#1d1d1b;}</style></defs><g id="Livello_2" data-name="Livello 2"><g id="keylines"><path class="cls-1" d="M27.52,99.91c14.86-4.52,20-4.59,38.43-8.5C85.1,87.35,105.46,82.65,108,71.27c2.19-9.7.06-12.55,2-26.73,1.37-9.88,3.87-23.32,0-26.75-5.44-4.87-20.43.85-39.14,6.6C46.23,32,38.25,33.26,28,38.21c-7.13,3.44-4.31,18.15-4.77,38.71C22.84,93.06,21,98.75,13.83,98.81.45,98.93,3.88,86.18,3,55.44c-.64-22-.5-36.06,4.51-39.61C13.68,11.45,50.35.81,53.81,3c3.7,2.34-.15,8.28,3.88,10.65S92.69,1,100.25,3.87c6.72,2.57,5,10.13,5,10.13"/><path class="cls-2" d="M15.7,99.56c-11.57,6.9-19.78-49.1-9.74-80C8.6,11.45,47.48,4.39,55.9,4.55c5.19.1-2.71,9.31,1,11.16S96.76-3.49,104.21,9C110.51,19.57,25,29.85,24,43.53,22.53,65.2,28.49,91.93,15.7,99.56Z"/></g></g></svg>