<svg xmlns="http://www.w3.org/2000/svg" viewBox="0 0 113.98 113.01"><defs><style>.cls-1,.cls-3{fill:none;stroke:#1d1d1b;stroke-linecap:round;stroke-linejoin:round;}.cls-1{stroke-width:5.42px;}.cls-2{fill:#1d1d1b;}.cls-3{stroke-width:5.01px;}</style></defs><g id="Livello_2" data-name="Livello 2"><g id="keylines"><path class="cls-1" d="M17.25,22.21C10.38,26.5,8.89,39.2,10.53,58c.73,8.43,1.28,22.18-7.82,28.1,4.4,3.54,25.67,6.34,39,6.9,21.62.92,45.76.1,54.12-10.2,8.86-10.92,14.5-52,8.91-57.29C98.29,19.48,26.06,16.69,17.25,22.21Z"/><path class="cls-2" d="M70.37,112.63c-3.3,0-6.79-.16-10.38-.47-14.66-1.28-42.28-4.28-53.86-6.35a1.87,1.87,0,0,1-1.54-1.59,1.85,1.85,0,0,1,1-1.94,39.39,39.39,0,0,0,3.63-2.1c1.56-1,4.86-4.84,6.64-6.89,1.21-1.4,1.26-1.45,1.4-1.5a.78.78,0,0,1,.22,0c.34,0,1.32.15,3.32.46,6.27,1,20.93,3.25,35.63,3.25,15.69,0,27-2.56,33.55-7.59,18.42-14.12,16.23-57.51,16.2-57.94a.38.38,0,0,1,.33-.4h0a1.25,1.25,0,0,1,1,.67C111,35.06,118.37,68,109.18,94.33,103.89,109.46,85.16,112.63,70.37,112.63Z"/><path class="cls-2" d="M106.58,29.9c2.53,0,12.24,35.68,2.24,64.3-4.55,13-19.84,18.06-38.45,18.06-3.35,0-6.82-.17-10.34-.48-13.71-1.19-41.92-4.21-53.83-6.34a1.51,1.51,0,0,1-.45-2.83,37.83,37.83,0,0,0,3.66-2.12c2.24-1.46,7.75-8.26,8-8.35h.09c1.49,0,20.09,3.7,39,3.7,13,0,26.06-1.75,33.78-7.66,18.8-14.41,16.35-58.26,16.35-58.26h0m0-.75h-.14a.76.76,0,0,0-.64.79c0,.43,2.21,43.62-16.06,57.62-6.5,5-17.71,7.51-33.32,7.51-14.67,0-29.32-2.27-35.57-3.24-2.08-.32-3-.46-3.38-.46a.82.82,0,0,0-.36.06c-.23.09-.26.12-1.54,1.6-1.77,2-5.05,5.83-6.57,6.82a37.63,37.63,0,0,1-3.59,2.08,2.27,2.27,0,0,0,.65,4.24c11.6,2.07,39.23,5.07,53.9,6.35,3.6.32,7.1.48,10.41.48,21.38,0,34.92-6.42,39.16-18.56C118.77,68,111.3,34.88,107.82,30a1.7,1.7,0,0,0-1.24-.83Z"/><path class="cls-3" d="M46.38,13.16C44.87,6.08,38.18,1.58,31.72,2.67c-7.09,1.19-10.83,8.58-10.29,14.38.68,7.39,8.46,13.81,17.92,12.83"/><path class="cls-3" d="M95.52,15.23C94,8.16,87.33,3.66,80.86,4.74,73.78,5.93,70,13.33,70.57,19.12,71.25,26.51,79,32.94,88.49,32"/></g></g></svg>