<svg xmlns="http://www.w3.org/2000/svg" viewBox="0 0 106.01 112.46"><defs><style>.cls-1,.cls-3{fill:#1d1d1b;}.cls-2{fill:none;stroke-width:5.71px;}.cls-2,.cls-3{stroke:#1d1d1b;stroke-linecap:round;stroke-linejoin:round;}.cls-3{stroke-width:5px;}</style></defs><g id="Livello_2" data-name="Livello 2"><g id="keylines"><path class="cls-1" d="M28.37,83.74C28,84.15,19.64,87,15.8,85.43s-5.41-6.73-6.25-9.25C5,62.55,1.6,34.63.63,27.51c-2.31-17,2.06-20.62,7.74-21.59C30.87,2.09,42.1-4.6,44.13,4.74c.54,2.49-4.33.76-5.21,4.3C30.6,42.53,33.44,78.47,28.37,83.74Z"/><path class="cls-2" d="M84.23,109.53C72,108,50.2,104.77,35.35,104A9.36,9.36,0,0,1,26.72,93.2c3.56-18.72,8.13-56.29,8.77-77.8.16-5.4,5.45-9.23,10.82-8.63l48.88,5.51c5.37.61,9,6,7.68,14.85C100,46.06,99.48,83,95.05,100.9,93.75,106.15,89.59,110.21,84.23,109.53Z"/><path class="cls-3" d="M71.7,63.44c1.92-4.76,7.77-15.36,3.87-18.55-1.74-1.43-5.16-.08-7.24,2.41-1.68,2-1.21,4.57-1.53,7.12-1.56-4.11-4.34-5.5-6.15-5.86-3.93-.77-5.61,2.71-2.88,7.34,5,8.44,7.43,13.32,9.81,14.54A24.14,24.14,0,0,0,71.7,63.44Z"/></g></g></svg>