<svg xmlns="http://www.w3.org/2000/svg" viewBox="0 0 114.52 113.75"><defs><style>.cls-1{fill:none;stroke-linecap:round;stroke-linejoin:round;stroke-width:5.89px;}.cls-1,.cls-2{stroke:#1d1d1b;}.cls-2{fill:#1d1d1b;stroke-miterlimit:10;stroke-width:5px;}</style></defs><g id="Livello_2" data-name="Livello 2"><g id="keylines"><path class="cls-1" d="M21.77,3c17.34.29,55,.18,66.2,0,12.75-.2,22.83,10.34,23.09,23.09.27,13.53,1,39.35,0,61.58-.58,12.74-10.38,24.11-23.09,23.09-27.64-2.22-63.18-.29-61.58,0-12.75,0-22.76-10.35-23.09-23.09-.65-25.71-.25-50.16,0-61.58C3.58,13.32,9,2.24,21.77,3"/><path class="cls-2" d="M36.82,69.53c-1.5,10-2.3,15.76.94,17.63C41.6,89.39,79,59.24,79,55.59,79.07,52.11,46,31.76,39.64,26.78a1.35,1.35,0,0,0-2.21,1.16C38.07,35.48,39.18,53.77,36.82,69.53Z"/></g></g></svg>