<svg xmlns="http://www.w3.org/2000/svg" viewBox="0 0 79 116.08"><defs><style>.cls-1{fill:none;stroke:#1d1d1b;stroke-linecap:round;stroke-linejoin:round;stroke-width:5.71px;}.cls-2{fill:#1d1d1b;}</style></defs><g id="Livello_2" data-name="Livello 2"><g id="keylines"><path class="cls-1" d="M76.14,86.22C75.9,63.81,62.44,52.73,48.5,45.89c-8.35-4.1-25.17-11.77-25.17-24.77,0-8.78,6.89-18.27,16.31-18.27s16.22,9.49,16.22,18.27C55.86,32,39,41.79,30.68,45.89A62.7,62.7,0,0,0,12.83,59.16c-5.44,6-10,17.41-10,29.16,0,7.38.23,12.05,1.69,17.53,3.42,12.84,20.51,4.6,33.88,6.49"/><path class="cls-2" d="M42.86,38.45c7-1.8,10.52-9.36,11.37-14.62,1.49-9.25-3.82-20.35-11.78-21.92C32.88,0,20.51,12.16,22.56,23.83,24.13,32.8,34.07,40.7,42.86,38.45Z"/></g></g></svg>